<?xml version="1.0" standalone="no"?>
<!DOCTYPE svg PUBLIC "-//W3C//DTD SVG 20010904//EN"
 "http://www.w3.org/TR/2001/REC-SVG-20010904/DTD/svg10.dtd">
<svg version="1.0" xmlns="http://www.w3.org/2000/svg"
 width="3041.000000pt" height="801.000000pt" viewBox="0 0 3041.000000 801.000000"
 preserveAspectRatio="xMidYMid meet">

<g transform="translate(0.000000,801.000000) scale(0.100000,-0.100000)"
fill="#000000" stroke="none">
<path d="M10 4002 l0 -1999 683 -393 c375 -217 932 -538 1237 -714 305 -175
741 -427 968 -558 228 -131 416 -238 418 -238 2 0 4 897 4 1993 l0 1992 -123
71 c-67 39 -322 187 -567 329 -838 485 -1266 733 -1935 1120 -369 213 -673
389 -677 392 -5 2 -8 -895 -8 -1995z"/>
<path d="M6578 5802 l-338 -196 0 -1999 0 -1998 58 33 c33 18 188 107 345 198
l287 165 0 1998 c0 1098 -3 1997 -7 1996 -5 0 -160 -89 -345 -197z"/>
<path d="M8945 5979 c-224 -10 -251 -14 -265 -39 -7 -12 -10 -666 -10 -1949 0
-1918 0 -1931 20 -1951 18 -18 33 -20 183 -20 125 0 168 3 183 14 18 14 19 35
22 750 l3 736 522 0 c528 0 725 8 918 36 494 71 703 268 787 744 25 144 24
730 -1 885 -65 392 -229 603 -552 708 -234 77 -367 89 -1045 92 -316 2 -660
-1 -765 -6z m1015 -339 c277 -9 436 -27 548 -62 219 -67 338 -195 391 -418 38
-160 50 -416 31 -640 -33 -367 -153 -533 -437 -598 -162 -38 -265 -44 -845
-49 l-568 -5 0 891 0 891 308 0 c169 -1 426 -5 572 -10z"/>
<path d="M15400 5979 c-268 -9 -296 -13 -310 -39 -7 -12 -10 -665 -10 -1947 0
-1638 2 -1932 14 -1948 13 -17 34 -20 202 -28 335 -14 1627 -14 1729 1 568 81
816 333 866 881 12 130 7 322 -11 454 -50 357 -217 579 -487 647 -24 6 -43 15
-43 20 0 4 17 14 38 21 197 63 313 219 374 501 19 90 22 133 23 343 0 257 -8
328 -52 470 -95 303 -293 482 -629 570 -213 55 -253 58 -884 60 -322 2 -691
-1 -820 -6z m1345 -349 c387 -53 563 -193 627 -497 26 -123 28 -386 5 -503
-50 -250 -173 -372 -426 -425 -136 -28 -305 -35 -883 -35 l-588 0 0 733 c0
404 3 737 8 741 11 12 1163 -1 1257 -14z m294 -1828 c337 -89 477 -332 458
-796 -15 -372 -147 -551 -465 -628 -84 -21 -114 -22 -819 -25 l-733 -4 0 741
0 741 738 -4 c723 -3 739 -3 821 -25z"/>
<path d="M21630 5952 c-22 -18 -26 -55 -186 -1913 -90 -1042 -164 -1915 -164
-1941 0 -72 14 -78 190 -78 80 0 155 3 167 6 12 3 26 18 32 32 5 15 64 720
131 1567 135 1734 130 1669 140 1658 5 -4 281 -699 614 -1543 334 -844 615
-1546 625 -1560 25 -34 46 -38 211 -39 184 -1 212 6 239 62 11 23 288 722 616
1552 558 1411 613 1548 615 1535 1 -3 59 -732 130 -1619 125 -1583 128 -1615
150 -1633 19 -16 42 -18 170 -18 159 0 194 7 203 39 2 11 -69 874 -159 1918
-90 1044 -164 1908 -164 1921 0 13 -11 34 -25 48 l-26 26 -194 -4 c-227 -4
-230 -5 -282 -109 -18 -35 -306 -770 -639 -1634 -333 -863 -610 -1581 -616
-1595 l-10 -25 -14 30 c-8 17 -291 748 -629 1625 -339 879 -628 1613 -643
1635 -47 68 -71 75 -278 75 -161 0 -184 -2 -204 -18z"/>
<path d="M26513 5955 c-12 -9 -25 -30 -28 -48 -8 -51 -325 -3758 -325 -3810 0
-72 14 -77 198 -77 145 0 154 1 175 22 22 22 26 64 146 1593 67 864 126 1592
129 1619 7 49 17 25 621 -1505 406 -1029 621 -1562 637 -1579 24 -25 25 -25
209 -25 184 0 185 0 209 25 16 17 225 533 637 1578 338 854 615 1548 617 1542
2 -6 61 -736 131 -1622 126 -1596 127 -1611 150 -1629 20 -17 42 -19 176 -19
135 0 156 2 176 19 19 15 23 27 21 64 -1 24 -74 883 -162 1908 -88 1025 -160
1874 -160 1887 0 13 -11 34 -25 48 l-26 26 -194 -4 c-220 -3 -228 -6 -275 -89
-13 -24 -304 -768 -646 -1654 -342 -885 -625 -1610 -629 -1610 -3 0 -285 721
-625 1602 -340 881 -631 1625 -647 1654 -49 91 -55 94 -276 97 -162 2 -195 0
-214 -13z"/>
<path d="M5193 5002 l-343 -197 0 -1997 c0 -1099 2 -1998 4 -1998 2 0 159 89
348 198 l343 198 3 1997 c1 1098 -1 1997 -5 1997 -5 0 -162 -89 -350 -198z"/>
<path d="M19020 4889 c-197 -15 -342 -37 -362 -55 -15 -15 -18 -33 -18 -121 0
-57 5 -113 10 -124 10 -18 26 -19 434 -19 440 0 574 -8 713 -40 212 -50 341
-164 389 -343 10 -38 14 -122 14 -314 l0 -261 -567 -5 c-481 -3 -581 -6 -656
-21 -103 -20 -213 -57 -277 -94 -59 -34 -152 -123 -189 -181 -72 -112 -111
-284 -111 -491 0 -417 118 -644 385 -746 141 -53 236 -65 543 -71 502 -10
1036 40 1180 109 78 37 73 -45 70 1111 -3 1031 -3 1032 -25 1110 -38 134 -78
203 -173 298 -71 71 -101 93 -180 131 -143 70 -284 106 -509 128 -120 12 -505
11 -671 -1z m1180 -2053 l0 -444 -50 -11 c-266 -57 -848 -72 -1043 -27 -68 16
-164 60 -203 93 -69 59 -110 154 -124 287 -14 137 1 252 45 343 39 78 81 119
161 154 95 43 161 47 702 48 l512 1 0 -444z"/>
<path d="M11942 4858 c-16 -16 -17 -1680 -1 -1879 52 -651 231 -882 749 -961
178 -27 958 -14 1124 18 l29 6 -6 -148 c-7 -173 -23 -250 -73 -345 -43 -82
-95 -131 -178 -170 -150 -70 -237 -79 -801 -79 -366 0 -486 -3 -505 -13 -24
-12 -25 -16 -28 -133 -2 -105 0 -122 15 -136 43 -38 656 -69 976 -50 385 23
580 85 727 232 139 139 210 345 240 695 15 183 14 2947 -2 2963 -8 8 -61 12
-174 12 -157 0 -163 -1 -178 -22 -14 -20 -16 -155 -16 -1245 l0 -1223 -22 -5
c-62 -14 -370 -36 -588 -42 -335 -8 -484 10 -627 77 -161 75 -244 230 -284
535 -8 61 -13 385 -16 995 -3 607 -8 909 -15 917 -14 18 -329 18 -346 1z"/>
<path d="M3808 4203 l-338 -196 0 -1999 0 -1999 58 33 c32 18 187 107 345 198
l286 165 1 1998 c0 1098 -3 1997 -7 1996 -5 0 -160 -88 -345 -196z"/>
</g>
</svg>
